<svg width="1200" height="640" viewBox="0 0 1200 640" fill="none" xmlns="http://www.w3.org/2000/svg">
  <defs>
    <linearGradient id="bg" x1="0" y1="0" x2="1200" y2="640" gradientUnits="userSpaceOnUse">
      <stop stop-color="#07111F"/>
      <stop offset="1" stop-color="#0E223D"/>
    </linearGradient>
    <linearGradient id="accent" x1="120" y1="120" x2="520" y2="520" gradientUnits="userSpaceOnUse">
      <stop stop-color="#22D3EE"/>
      <stop offset="1" stop-color="#2563EB"/>
    </linearGradient>
    <linearGradient id="panel" x1="720" y1="140" x2="1100" y2="500" gradientUnits="userSpaceOnUse">
      <stop stop-color="#10213A"/>
      <stop offset="1" stop-color="#0B1728"/>
    </linearGradient>
  </defs>
  <rect width="1200" height="640" rx="36" fill="url(#bg)"/>
  <circle cx="1040" cy="110" r="150" fill="#2563EB" fill-opacity="0.16"/>
  <circle cx="210" cy="560" r="180" fill="#22D3EE" fill-opacity="0.12"/>
  <rect x="64" y="64" width="1072" height="512" rx="28" stroke="#1E3354" stroke-width="2" fill="#081421" fill-opacity="0.88"/>
  <rect x="94" y="96" width="310" height="448" rx="22" fill="#0C1A2B" stroke="#1F385C" stroke-width="1.5"/>
  <rect x="428" y="96" width="650" height="448" rx="22" fill="url(#panel)" stroke="#1F385C" stroke-width="1.5"/>
  <text x="128" y="152" fill="#93C5FD" font-family="Inter, Arial, sans-serif" font-size="18" font-weight="700" letter-spacing="3">FLOWCRM</text>
  <text x="128" y="198" fill="#F8FAFC" font-family="Inter, Arial, sans-serif" font-size="42" font-weight="800">Multi-Tenant CRM</text>
  <text x="128" y="236" fill="#CBD5E1" font-family="Inter, Arial, sans-serif" font-size="18">Lead management, pipelines, analytics, RBAC.</text>
  <rect x="128" y="272" width="110" height="34" rx="17" fill="#0F172A" stroke="#38BDF8"/>
  <text x="148" y="294" fill="#E0F2FE" font-family="Inter, Arial, sans-serif" font-size="14" font-weight="700">SaaS</text>
  <rect x="250" y="272" width="88" height="34" rx="17" fill="#0F172A" stroke="#22D3EE"/>
  <text x="271" y="294" fill="#CFFAFE" font-family="Inter, Arial, sans-serif" font-size="14" font-weight="700">RBAC</text>
  <rect x="128" y="330" width="252" height="96" rx="18" fill="#0B1524" stroke="#1E3A5F"/>
  <text x="148" y="362" fill="#F8FAFC" font-family="Inter, Arial, sans-serif" font-size="16" font-weight="700">Monthly revenue</text>
  <text x="148" y="400" fill="#67E8F9" font-family="Inter, Arial, sans-serif" font-size="34" font-weight="800">$128K</text>
  <rect x="128" y="444" width="118" height="78" rx="18" fill="#0B1524" stroke="#1E3A5F"/>
  <rect x="262" y="444" width="118" height="78" rx="18" fill="#0B1524" stroke="#1E3A5F"/>
  <text x="150" y="478" fill="#CBD5E1" font-family="Inter, Arial, sans-serif" font-size="13">Active deals</text>
  <text x="150" y="508" fill="#F8FAFC" font-family="Inter, Arial, sans-serif" font-size="24" font-weight="700">42</text>
  <text x="284" y="478" fill="#CBD5E1" font-family="Inter, Arial, sans-serif" font-size="13">Teams</text>
  <text x="284" y="508" fill="#F8FAFC" font-family="Inter, Arial, sans-serif" font-size="24" font-weight="700">8</text>
  <text x="470" y="148" fill="#E0F2FE" font-family="Inter, Arial, sans-serif" font-size="22" font-weight="700">Pipeline Overview</text>
  <rect x="470" y="172" width="580" height="28" rx="14" fill="#0B1A2C" stroke="#1E3A5F"/>
  <text x="490" y="191" fill="#94A3B8" font-family="Inter, Arial, sans-serif" font-size="12" font-weight="700">LEADS</text>
  <text x="600" y="191" fill="#94A3B8" font-family="Inter, Arial, sans-serif" font-size="12" font-weight="700">QUALIFIED</text>
  <text x="745" y="191" fill="#94A3B8" font-family="Inter, Arial, sans-serif" font-size="12" font-weight="700">PROPOSAL</text>
  <text x="900" y="191" fill="#94A3B8" font-family="Inter, Arial, sans-serif" font-size="12" font-weight="700">WON</text>
  <rect x="470" y="224" width="128" height="112" rx="16" fill="#0D1A2C" stroke="#24466F"/>
  <rect x="612" y="248" width="128" height="112" rx="16" fill="#0D1A2C" stroke="#24466F"/>
  <rect x="754" y="212" width="128" height="112" rx="16" fill="#0D1A2C" stroke="#24466F"/>
  <rect x="896" y="256" width="128" height="112" rx="16" fill="#0D1A2C" stroke="#24466F"/>
  <text x="490" y="258" fill="#F8FAFC" font-family="Inter, Arial, sans-serif" font-size="15" font-weight="700">Acme Corp</text>
  <text x="490" y="284" fill="#94A3B8" font-family="Inter, Arial, sans-serif" font-size="12">$24K pipeline</text>
  <text x="632" y="282" fill="#F8FAFC" font-family="Inter, Arial, sans-serif" font-size="15" font-weight="700">Northwind</text>
  <text x="632" y="308" fill="#94A3B8" font-family="Inter, Arial, sans-serif" font-size="12">Demo booked</text>
  <text x="774" y="246" fill="#F8FAFC" font-family="Inter, Arial, sans-serif" font-size="15" font-weight="700">Globex</text>
  <text x="774" y="272" fill="#94A3B8" font-family="Inter, Arial, sans-serif" font-size="12">Proposal sent</text>
  <text x="916" y="290" fill="#F8FAFC" font-family="Inter, Arial, sans-serif" font-size="15" font-weight="700">Initech</text>
  <text x="916" y="316" fill="#94A3B8" font-family="Inter, Arial, sans-serif" font-size="12">Closed won</text>
  <rect x="470" y="392" width="214" height="102" rx="18" fill="#0B1524" stroke="#1E3A5F"/>
  <rect x="704" y="392" width="214" height="102" rx="18" fill="#0B1524" stroke="#1E3A5F"/>
  <rect x="938" y="392" width="112" height="102" rx="18" fill="#0B1524" stroke="#1E3A5F"/>
  <text x="492" y="428" fill="#CBD5E1" font-family="Inter, Arial, sans-serif" font-size="13">Audit events</text>
  <text x="492" y="462" fill="#67E8F9" font-family="Inter, Arial, sans-serif" font-size="28" font-weight="800">1,248</text>
  <text x="726" y="428" fill="#CBD5E1" font-family="Inter, Arial, sans-serif" font-size="13">Conversion rate</text>
  <text x="726" y="462" fill="#67E8F9" font-family="Inter, Arial, sans-serif" font-size="28" font-weight="800">36%</text>
  <text x="960" y="428" fill="#CBD5E1" font-family="Inter, Arial, sans-serif" font-size="13">Tenants</text>
  <text x="960" y="462" fill="#67E8F9" font-family="Inter, Arial, sans-serif" font-size="28" font-weight="800">14</text>
</svg>
