<svg width="1200" height="640" viewBox="0 0 1200 640" fill="none" xmlns="http://www.w3.org/2000/svg">
  <defs>
    <linearGradient id="bg" x1="0" y1="0" x2="1200" y2="640" gradientUnits="userSpaceOnUse">
      <stop stop-color="#071A1C"/>
      <stop offset="1" stop-color="#0B2D31"/>
    </linearGradient>
    <linearGradient id="accent" x1="120" y1="120" x2="520" y2="520" gradientUnits="userSpaceOnUse">
      <stop stop-color="#34D399"/>
      <stop offset="1" stop-color="#14B8A6"/>
    </linearGradient>
    <linearGradient id="panel" x1="700" y1="120" x2="1080" y2="520" gradientUnits="userSpaceOnUse">
      <stop stop-color="#0D2B2E"/>
      <stop offset="1" stop-color="#07161A"/>
    </linearGradient>
  </defs>
  <rect width="1200" height="640" rx="36" fill="url(#bg)"/>
  <circle cx="1020" cy="100" r="160" fill="#34D399" fill-opacity="0.16"/>
  <circle cx="180" cy="550" r="170" fill="#14B8A6" fill-opacity="0.11"/>
  <rect x="64" y="64" width="1072" height="512" rx="28" stroke="#1B4D50" stroke-width="2" fill="#081418" fill-opacity="0.88"/>
  <rect x="92" y="94" width="320" height="450" rx="22" fill="#0A1619" stroke="#24555A"/>
  <rect x="438" y="94" width="672" height="450" rx="22" fill="url(#panel)" stroke="#24555A"/>
  <text x="124" y="150" fill="#6EE7B7" font-family="Inter, Arial, sans-serif" font-size="18" font-weight="700" letter-spacing="3">TALENTFLOW ATS</text>
  <text x="124" y="198" fill="#F8FAFC" font-family="Inter, Arial, sans-serif" font-size="40" font-weight="800">Recruitment Platform</text>
  <text x="124" y="236" fill="#CBD5E1" font-family="Inter, Arial, sans-serif" font-size="18">Job pipelines, scheduling, analytics, RBAC.</text>
  <rect x="124" y="272" width="132" height="34" rx="17" fill="#102420" stroke="#34D399"/>
  <text x="145" y="294" fill="#ECFDF5" font-family="Inter, Arial, sans-serif" font-size="14" font-weight="700">Hiring</text>
  <rect x="268" y="272" width="112" height="34" rx="17" fill="#102420" stroke="#14B8A6"/>
  <text x="286" y="294" fill="#CCFBF1" font-family="Inter, Arial, sans-serif" font-size="14" font-weight="700">Pipelines</text>
  <rect x="124" y="330" width="252" height="98" rx="18" fill="#0A171B" stroke="#235156"/>
  <text x="146" y="364" fill="#F8FAFC" font-family="Inter, Arial, sans-serif" font-size="16" font-weight="700">Open roles</text>
  <text x="146" y="404" fill="#6EE7B7" font-family="Inter, Arial, sans-serif" font-size="34" font-weight="800">18</text>
  <rect x="124" y="446" width="118" height="74" rx="18" fill="#0A171B" stroke="#235156"/>
  <rect x="262" y="446" width="118" height="74" rx="18" fill="#0A171B" stroke="#235156"/>
  <text x="146" y="478" fill="#CBD5E1" font-family="Inter, Arial, sans-serif" font-size="13">Interviews</text>
  <text x="146" y="506" fill="#F8FAFC" font-family="Inter, Arial, sans-serif" font-size="24" font-weight="700">27</text>
  <text x="284" y="478" fill="#CBD5E1" font-family="Inter, Arial, sans-serif" font-size="13">Offers</text>
  <text x="284" y="506" fill="#F8FAFC" font-family="Inter, Arial, sans-serif" font-size="24" font-weight="700">4</text>
  <text x="462" y="150" fill="#ECFDF5" font-family="Inter, Arial, sans-serif" font-size="22" font-weight="700">Candidate Pipeline</text>
  <rect x="462" y="180" width="576" height="292" rx="24" fill="#091A1D" stroke="#235156"/>
  <rect x="490" y="208" width="122" height="226" rx="18" fill="#0D272B" stroke="#2A6368"/>
  <rect x="622" y="208" width="122" height="226" rx="18" fill="#0D272B" stroke="#2A6368"/>
  <rect x="754" y="208" width="122" height="226" rx="18" fill="#0D272B" stroke="#2A6368"/>
  <rect x="886" y="208" width="122" height="226" rx="18" fill="#0D272B" stroke="#2A6368"/>
  <text x="510" y="238" fill="#A7F3D0" font-family="Inter, Arial, sans-serif" font-size="13" font-weight="700">APPLIED</text>
  <text x="642" y="238" fill="#A7F3D0" font-family="Inter, Arial, sans-serif" font-size="13" font-weight="700">SCREEN</text>
  <text x="773" y="238" fill="#A7F3D0" font-family="Inter, Arial, sans-serif" font-size="13" font-weight="700">INTERVIEW</text>
  <text x="914" y="238" fill="#A7F3D0" font-family="Inter, Arial, sans-serif" font-size="13" font-weight="700">OFFER</text>
  <rect x="506" y="264" width="90" height="34" rx="17" fill="#102A22"/>
  <text x="526" y="286" fill="#ECFDF5" font-family="Inter, Arial, sans-serif" font-size="13" font-weight="700">A. Khan</text>
  <rect x="638" y="290" width="90" height="34" rx="17" fill="#102A22"/>
  <text x="658" y="312" fill="#ECFDF5" font-family="Inter, Arial, sans-serif" font-size="13" font-weight="700">M. Lee</text>
  <rect x="770" y="256" width="90" height="34" rx="17" fill="#102A22"/>
  <text x="790" y="278" fill="#ECFDF5" font-family="Inter, Arial, sans-serif" font-size="13" font-weight="700">S. Patel</text>
  <rect x="902" y="320" width="90" height="34" rx="17" fill="#102A22"/>
  <text x="922" y="342" fill="#ECFDF5" font-family="Inter, Arial, sans-serif" font-size="13" font-weight="700">J. Roy</text>
  <rect x="462" y="494" width="186" height="42" rx="21" fill="#102420" stroke="#34D399"/>
  <text x="490" y="521" fill="#ECFDF5" font-family="Inter, Arial, sans-serif" font-size="14" font-weight="700">Scheduling</text>
  <rect x="664" y="494" width="198" height="42" rx="21" fill="#102420" stroke="#14B8A6"/>
  <text x="692" y="521" fill="#ECFDF5" font-family="Inter, Arial, sans-serif" font-size="14" font-weight="700">Resume parsing</text>
  <rect x="878" y="494" width="166" height="42" rx="21" fill="#102420" stroke="#6EE7B7"/>
  <text x="906" y="521" fill="#ECFDF5" font-family="Inter, Arial, sans-serif" font-size="14" font-weight="700">Analytics</text>
</svg>
